HIERARCHY
ROOT Hips
{
	OFFSET 0.000000 0.000000 0.000000
	CHANNELS 6 Xposition Yposition Zposition Xrotation Yrotation Zrotation
	JOINT Thigh.L
	{
		OFFSET 0.054163 0.029738 -0.092062
		CHANNELS 3 Xrotation Yrotation Zrotation
		JOINT Shin.L
		{
			OFFSET 0.055642 0.012335 -0.404737
			CHANNELS 3 Xrotation Yrotation Zrotation
			JOINT Foot.L
			{
				OFFSET -0.041990 0.031806 -0.425949
				CHANNELS 3 Xrotation Yrotation Zrotation
				JOINT Toe.L
				{
					OFFSET 0.045790 -0.120716 -0.063020
					CHANNELS 3 Xrotation Yrotation Zrotation
					End Site
					{
						OFFSET 0.000000 0.050000 0.000000
					}
				}
			}
		}
	}
	JOINT Thigh.R
	{
		OFFSET -0.059397 0.025988 -0.103096
		CHANNELS 3 Xrotation Yrotation Zrotation
		JOINT Shin.R
		{
			OFFSET -0.044894 0.018648 -0.387885
			CHANNELS 3 Xrotation Yrotation Zrotation
			JOINT Foot.R
			{
				OFFSET 0.015398 0.020281 -0.434707
				CHANNELS 3 Xrotation Yrotation Zrotation
				JOINT Toe.R
				{
					OFFSET -0.037842 -0.121509 -0.063017
					CHANNELS 3 Xrotation Yrotation Zrotation
					End Site
					{
						OFFSET 0.000000 0.050000 0.000000
					}
				}
			}
		}
	}
	JOINT Spine
	{
		OFFSET -0.002298 0.021581 0.109327
		CHANNELS 3 Xrotation Yrotation Zrotation
		JOINT Spine.2
		{
			OFFSET 0.007400 0.003653 0.135470
			CHANNELS 3 Xrotation Yrotation Zrotation
			JOINT Chest
			{
				OFFSET -0.010389 -0.022990 0.051413
				CHANNELS 3 Xrotation Yrotation Zrotation
				JOINT Neck
				{
					OFFSET -0.010302 0.027369 0.165093
					CHANNELS 3 Xrotation Yrotation Zrotation
					JOINT Head
					{
						OFFSET 0.023324 -0.022012 0.168859
						CHANNELS 3 Xrotation Yrotation Zrotation
						End Site
						{
							OFFSET 0.000000 0.050000 0.000000
						}
					}
				}
				JOINT Clavicle.L
				{
					OFFSET 0.044559 0.006689 0.084596
					CHANNELS 3 Xrotation Yrotation Zrotation
					JOINT UpperArm.L
					{
						OFFSET 0.113214 0.014356 0.059858
						CHANNELS 3 Xrotation Yrotation Zrotation
						JOINT ForeArm.L
						{
							OFFSET 0.263664 0.037464 -0.075150
							CHANNELS 3 Xrotation Yrotation Zrotation
							JOINT Hand.L
							{
								OFFSET 0.263794 0.004342 0.021362
								CHANNELS 3 Xrotation Yrotation Zrotation
								JOINT Thumb1.L
								{
									OFFSET 0.154592 0.001968 0.009685
									CHANNELS 3 Xrotation Yrotation Zrotation
									JOINT Thumb2.L
									{
										OFFSET 0.029898 0.000492 0.002421
										CHANNELS 3 Xrotation Yrotation Zrotation
										End Site
										{
											OFFSET 0.024915 0.000410 0.002018
										}
									}
								}
								JOINT Index1.L
								{
									OFFSET 0.137592 0.001968 0.009685
									CHANNELS 3 Xrotation Yrotation Zrotation
									JOINT Index2.L
									{
										OFFSET 0.029898 0.000492 0.002421
										CHANNELS 3 Xrotation Yrotation Zrotation
										JOINT Index3.L
										{
											OFFSET 0.021925 0.000361 0.001775
											CHANNELS 3 Xrotation Yrotation Zrotation
											End Site
											{
												OFFSET 0.017939 0.000295 0.001453
											}
										}
									}
								}
								JOINT Middle1.L
								{
									OFFSET 0.119592 0.001968 0.009685
									CHANNELS 3 Xrotation Yrotation Zrotation
									JOINT Middle2.L
									{
										OFFSET 0.030895 0.000508 0.002502
										CHANNELS 3 Xrotation Yrotation Zrotation
										JOINT Middle3.L
										{
											OFFSET 0.021925 0.000361 0.001775
											CHANNELS 3 Xrotation Yrotation Zrotation
											End Site
											{
												OFFSET 0.017939 0.000295 0.001453
											}
										}
									}
								}
								JOINT Ring1.L
								{
									OFFSET 0.101592 0.001968 0.009685
									CHANNELS 3 Xrotation Yrotation Zrotation
									JOINT Ring2.L
									{
										OFFSET 0.028901 0.000476 0.002340
										CHANNELS 3 Xrotation Yrotation Zrotation
										JOINT Ring3.L
										{
											OFFSET 0.019932 0.000328 0.001614
											CHANNELS 3 Xrotation Yrotation Zrotation
											End Site
											{
												OFFSET 0.016942 0.000279 0.001372
											}
										}
									}
								}
								JOINT Pinky1.L
								{
									OFFSET 0.085592 0.001968 0.009685
									CHANNELS 3 Xrotation Yrotation Zrotation
									JOINT Pinky2.L
									{
										OFFSET 0.023918 0.000394 0.001937
										CHANNELS 3 Xrotation Yrotation Zrotation
										JOINT Pinky3.L
										{
											OFFSET 0.016942 0.000279 0.001372
											CHANNELS 3 Xrotation Yrotation Zrotation
											End Site
											{
												OFFSET 0.013952 0.000230 0.001130
											}
										}
									}
								}
							}
						}
					}
				}
				JOINT Clavicle.R
				{
					OFFSET -0.043593 0.012761 0.083930
					CHANNELS 3 Xrotation Yrotation Zrotation
					JOINT UpperArm.R
					{
						OFFSET -0.097926 0.009744 0.055763
						CHANNELS 3 Xrotation Yrotation Zrotation
						JOINT ForeArm.R
						{
							OFFSET -0.280306 0.024093 -0.041609
							CHANNELS 3 Xrotation Yrotation Zrotation
							JOINT Hand.R
							{
								OFFSET -0.260479 0.017136 -0.004244
								CHANNELS 3 Xrotation Yrotation Zrotation
								JOINT Thumb1.R
								{
									OFFSET -0.154725 0.007877 -0.001951
									CHANNELS 3 Xrotation Yrotation Zrotation
									JOINT Thumb2.R
									{
										OFFSET -0.029931 0.001969 -0.000488
										CHANNELS 3 Xrotation Yrotation Zrotation
										End Site
										{
											OFFSET -0.024943 0.001641 -0.000406
										}
									}
								}
								JOINT Index1.R
								{
									OFFSET -0.137725 0.007877 -0.001951
									CHANNELS 3 Xrotation Yrotation Zrotation
									JOINT Index2.R
									{
										OFFSET -0.029931 0.001969 -0.000488
										CHANNELS 3 Xrotation Yrotation Zrotation
										JOINT Index3.R
										{
											OFFSET -0.021950 0.001444 -0.000358
											CHANNELS 3 Xrotation Yrotation Zrotation
											End Site
											{
												OFFSET -0.017959 0.001181 -0.000293
											}
										}
									}
								}
								JOINT Middle1.R
								{
									OFFSET -0.119725 0.007877 -0.001951
									CHANNELS 3 Xrotation Yrotation Zrotation
									JOINT Middle2.R
									{
										OFFSET -0.030929 0.002035 -0.000504
										CHANNELS 3 Xrotation Yrotation Zrotation
										JOINT Middle3.R
										{
											OFFSET -0.021950 0.001444 -0.000358
											CHANNELS 3 Xrotation Yrotation Zrotation
											End Site
											{
												OFFSET -0.017959 0.001181 -0.000293
											}
										}
									}
								}
								JOINT Ring1.R
								{
									OFFSET -0.101725 0.007877 -0.001951
									CHANNELS 3 Xrotation Yrotation Zrotation
									JOINT Ring2.R
									{
										OFFSET -0.028934 0.001903 -0.000471
										CHANNELS 3 Xrotation Yrotation Zrotation
										JOINT Ring3.R
										{
											OFFSET -0.019954 0.001313 -0.000325
											CHANNELS 3 Xrotation Yrotation Zrotation
											End Site
											{
												OFFSET -0.016961 0.001116 -0.000276
											}
										}
									}
								}
								JOINT Pinky1.R
								{
									OFFSET -0.085725 0.007877 -0.001951
									CHANNELS 3 Xrotation Yrotation Zrotation
									JOINT Pinky2.R
									{
										OFFSET -0.023945 0.001575 -0.000390
										CHANNELS 3 Xrotation Yrotation Zrotation
										JOINT Pinky3.R
										{
											OFFSET -0.016961 0.001116 -0.000276
											CHANNELS 3 Xrotation Yrotation Zrotation
											End Site
											{
												OFFSET -0.013968 0.000919 -0.000228
											}
										}
									}
								}
							}
						}
					}
				}
			}
		}
	}
}
MOTION
Frames: 5
Frame Time: 0.04166667
-0.005409360 0.221483640 1.521636 49.035868 4.166712 5.755938 -88.261672 0.837104 -12.253569 57.024096 14.177815 -5.822248 1.342081 3.262027 7.024621 -0.180255 0.458770 -0.948702 -92.885569 2.911080 12.168653 65.219480 -13.493449 -3.503597 -5.613651 -3.422210 -6.827687 -0.825780 -2.473964 -0.528039 70.762381 -3.238513 0.402835 -12.570240 -3.040473 -0.014598 0.296500 -2.148361 0.818067 3.904790 11.827632 2.127767 -19.660273 -7.331880 -4.780059 -16.862617 -1.448725 -43.057299 -17.891766 4.976051 -27.835370 -22.286393 3.680544 -17.109923 -5.318117 -28.482397 -5.027518 0.000000 0.000000 0.000000 0.000000 0.000000 0.000000 0.000000 0.000000 0.000000 0.000000 0.000000 0.000000 0.000000 0.000000 0.000000 0.000000 0.000000 0.000000 0.000000 0.000000 0.000000 0.000000 0.000000 0.000000 0.000000 0.000000 0.000000 0.000000 0.000000 0.000000 0.000000 0.000000 0.000000 0.000000 0.000000 0.000000 0.000000 0.000000 0.000000 0.000000 0.000000 0.000000 -10.518500 8.514907 44.149314 -26.385000 -6.156007 29.312267 -20.644940 0.389838 21.591727 0.149494 27.305204 7.978409 0.000000 0.000000 0.000000 0.000000 0.000000 0.000000 0.000000 0.000000 0.000000 0.000000 0.000000 0.000000 0.000000 0.000000 0.000000 0.000000 0.000000 0.000000 0.000000 0.000000 0.000000 0.000000 0.000000 0.000000 0.000000 0.000000 0.000000 0.000000 0.000000 0.000000 0.000000 0.000000 0.000000 0.000000 0.000000 0.000000 0.000000 0.000000 0.000000 0.000000 0.000000 0.000000
-0.003251474 0.220269785 1.513865 47.856683 3.821609 5.878748 -88.373430 0.894191 -12.318810 59.460292 14.461308 -6.042677 1.367752 3.392296 6.672849 -0.214941 0.415839 -0.977272 -92.959453 3.118500 12.189220 67.880134 -13.807753 -3.150223 -6.287270 -3.055829 -6.132470 -0.930468 -2.501036 -0.451855 70.654150 -3.103114 0.316199 -12.301626 -3.280145 -0.117857 0.412692 -2.040540 0.724340 4.371335 11.509321 2.268956 -19.319332 -7.035582 -4.906847 -16.380640 -1.094903 -42.778309 -17.778572 5.405721 -27.982251 -22.624984 3.885752 -17.071321 -5.706126 -28.592796 -4.990939 0.000000 0.000000 0.000000 0.000000 0.000000 0.000000 0.000000 0.000000 0.000000 0.000000 0.000000 0.000000 0.000000 0.000000 0.000000 0.000000 0.000000 0.000000 0.000000 0.000000 0.000000 0.000000 0.000000 0.000000 0.000000 0.000000 0.000000 0.000000 0.000000 0.000000 0.000000 0.000000 0.000000 0.000000 0.000000 0.000000 0.000000 0.000000 0.000000 0.000000 0.000000 0.000000 -10.173163 7.766833 43.906302 -25.872682 -6.704314 29.550775 -20.601920 0.398481 21.932247 -0.324640 27.644373 8.285055 0.000000 0.000000 0.000000 0.000000 0.000000 0.000000 0.000000 0.000000 0.000000 0.000000 0.000000 0.000000 0.000000 0.000000 0.000000 0.000000 0.000000 0.000000 0.000000 0.000000 0.000000 0.000000 0.000000 0.000000 0.000000 0.000000 0.000000 0.000000 0.000000 0.000000 0.000000 0.000000 0.000000 0.000000 0.000000 0.000000 0.000000 0.000000 0.000000 0.000000 0.000000 0.000000
-0.001552090 0.218603216 1.506617 46.836329 3.540809 5.981996 -88.503117 0.890620 -12.361356 61.978602 14.745488 -6.245526 1.158359 3.468514 6.225983 -0.210495 0.339330 -1.023461 -92.995394 3.262557 12.185751 70.639257 -14.037089 -2.806471 -7.298594 -2.619875 -5.386883 -0.996925 -2.559678 -0.385410 70.397495 -2.953628 0.265893 -11.987426 -3.513400 -0.217214 0.550039 -1.894368 0.664548 4.910004 11.132737 2.376536 -18.928978 -6.769312 -5.119874 -15.905124 -0.766959 -42.535817 -17.584337 5.925745 -28.158990 -22.877011 4.108146 -17.051070 -5.921506 -28.984917 -4.958556 0.000000 0.000000 0.000000 0.000000 0.000000 0.000000 0.000000 0.000000 0.000000 0.000000 0.000000 0.000000 0.000000 0.000000 0.000000 0.000000 0.000000 0.000000 0.000000 0.000000 0.000000 0.000000 0.000000 0.000000 0.000000 0.000000 0.000000 0.000000 0.000000 0.000000 0.000000 0.000000 0.000000 0.000000 0.000000 0.000000 0.000000 0.000000 0.000000 0.000000 0.000000 0.000000 -9.755896 6.953676 43.603155 -25.311978 -7.243297 29.688420 -20.421287 0.383320 22.264153 -0.614964 28.199574 8.514002 0.000000 0.000000 0.000000 0.000000 0.000000 0.000000 0.000000 0.000000 0.000000 0.000000 0.000000 0.000000 0.000000 0.000000 0.000000 0.000000 0.000000 0.000000 0.000000 0.000000 0.000000 0.000000 0.000000 0.000000 0.000000 0.000000 0.000000 0.000000 0.000000 0.000000 0.000000 0.000000 0.000000 0.000000 0.000000 0.000000 0.000000 0.000000 0.000000 0.000000 0.000000 0.000000
0.000175602 0.216278942 1.498976 45.821982 3.255747 6.149314 -88.668987 0.956075 -12.455190 64.502140 15.007121 -6.447375 0.892806 3.540627 5.777371 -0.212739 0.300722 -1.055321 -93.069658 3.382137 12.203908 73.505897 -14.213827 -2.442397 -8.498137 -2.124016 -4.767317 -1.053751 -2.598907 -0.333440 70.194286 -2.810438 0.237603 -11.691865 -3.737867 -0.328993 0.747451 -1.782855 0.604671 5.516872 10.766111 2.401013 -18.557658 -6.543444 -5.331559 -15.554954 -0.525286 -42.369218 -17.376980 6.332750 -28.274928 -22.891536 4.327935 -16.996015 -6.185803 -29.395563 -4.793056 0.000000 0.000000 0.000000 0.000000 0.000000 0.000000 0.000000 0.000000 0.000000 0.000000 0.000000 0.000000 0.000000 0.000000 0.000000 0.000000 0.000000 0.000000 0.000000 0.000000 0.000000 0.000000 0.000000 0.000000 0.000000 0.000000 0.000000 0.000000 0.000000 0.000000 0.000000 0.000000 0.000000 0.000000 0.000000 0.000000 0.000000 0.000000 0.000000 0.000000 0.000000 0.000000 -9.362590 6.179313 43.312265 -24.797483 -7.494060 29.793156 -19.869629 0.323079 22.557635 -0.855212 28.753871 8.579283 0.000000 0.000000 0.000000 0.000000 0.000000 0.000000 0.000000 0.000000 0.000000 0.000000 0.000000 0.000000 0.000000 0.000000 0.000000 0.000000 0.000000 0.000000 0.000000 0.000000 0.000000 0.000000 0.000000 0.000000 0.000000 0.000000 0.000000 0.000000 0.000000 0.000000 0.000000 0.000000 0.000000 0.000000 0.000000 0.000000 0.000000 0.000000 0.000000 0.000000 0.000000 0.000000
0.002392822 0.213805834 1.491257 44.912809 3.021984 6.214385 -88.838400 0.914232 -12.505330 67.076645 15.235619 -6.707062 0.407182 3.522873 5.304678 -0.216585 0.244412 -1.114954 -93.072857 3.520265 12.159863 76.367652 -14.402415 -2.077324 -9.976106 -1.517255 -4.010361 -1.078268 -2.633444 -0.273782 70.004881 -2.677061 0.129658 -11.436798 -3.971780 -0.382932 0.877341 -1.663251 0.534508 5.944020 10.422243 2.542713 -18.141330 -6.299383 -5.462322 -15.172690 -0.213621 -42.048644 -17.165308 6.972690 -28.345559 -22.960238 4.402500 -17.130670 -6.259639 -29.758825 -4.741527 0.000000 0.000000 0.000000 0.000000 0.000000 0.000000 0.000000 0.000000 0.000000 0.000000 0.000000 0.000000 0.000000 0.000000 0.000000 0.000000 0.000000 0.000000 0.000000 0.000000 0.000000 0.000000 0.000000 0.000000 0.000000 0.000000 0.000000 0.000000 0.000000 0.000000 0.000000 0.000000 0.000000 0.000000 0.000000 0.000000 0.000000 0.000000 0.000000 0.000000 0.000000 0.000000 -9.030248 5.455585 42.964361 -24.186413 -8.048428 29.912387 -19.533994 0.245785 23.010027 -1.099286 29.233909 8.710762 0.000000 0.000000 0.000000 0.000000 0.000000 0.000000 0.000000 0.000000 0.000000 0.000000 0.000000 0.000000 0.000000 0.000000 0.000000 0.000000 0.000000 0.000000 0.000000 0.000000 0.000000 0.000000 0.000000 0.000000 0.000000 0.000000 0.000000 0.000000 0.000000 0.000000 0.000000 0.000000 0.000000 0.000000 0.000000 0.000000 0.000000 0.000000 0.000000 0.000000 0.000000 0.000000
